# xmcd
#
# Track frame offsets: 
#        150
#        13713
#        29373
#        58038
#        108063
#        135083
#        156748
#        169808
#        177873
#        204813
#        224473
#        247463
#        260738
#        267918
#        282733
#
# Disc length: 3872 seconds
#
# Revision: 0
# Processed by: cddbd v1.5.2PL0 Copyright (c) Steve Scherf et al.
# Submitted via: ExactAudioCopy v1.0b4
#
DISCID=e30f1e0f
DTITLE=Edward Gardner, Bergen Philharmonic - Janacek: Orchestral works
DTITLE=vol. 3
DYEAR=2015
DGENRE=Choral
TTITLE0=Glagolitic mass   Introduction  JW 3-9   [Leos Janácek]  
TTITLE1=Glagolitic mass   Gospodi pomiluj (Kyrie)  JW 3-9   [Leos Janá
TTITLE1=cek]  
TTITLE2=Glagolitic mass   Slava (Gloria)  JW 3-9   [Leos Janácek]  
TTITLE3=Glagolitic mass   Veruju (Credo)  JW 3-9   [Leos Janácek]  
TTITLE4=Glagolitic mass   Svet (Sanctus)  JW 3-9   [Leos Janácek]  
TTITLE5=Glagolitic mass   Agnece Bozij (Agnus Dei)  JW 3-9   [Leos Jan
TTITLE5=ácek]  
TTITLE6=Glagolitic mass   Organ solo (Postludium)  JW 3-9   [Leos Janá
TTITLE6=cek]  
TTITLE7=Glagolitic mass   Intrada  JW 3-9   [Leos Janácek]  
TTITLE8=Adagio, orchestra     JW 6-5   [Leos Janácek]  
TTITLE9=Hail Mary, soloist, chorus, violin and organ     JW 2-14   [Leos
TTITLE9=Janácek]  
TTITLE10=Our Father, soloist, chorus, harp and organ   ‘Otče náš’ (Our F
TTITLE10=ather). Andante – Con moto – Tempo I –  JW 4-29   [Leos Janác
TTITLE10=ek]  
TTITLE11=Our Father, soloist, chorus, harp and organ   ‘Buď vůle tvá’ (T
TTITLE11=hy will be done). Moderato –  JW 4-29   [Leos Janácek]  
TTITLE12=Our Father, soloist, chorus, harp and organ   ‘Chléb náš’ (Give
TTITLE12=us this day). Con moto –  JW 4-29   [Leos Janácek]  
TTITLE13=Our Father, soloist, chorus, harp and organ   ‘A odpusť nám’ (A
TTITLE13=nd forgive us). Adagio –  JW 4-29   [Leos Janácek]  
TTITLE14=Our Father, soloist, chorus, harp and organ   ‘Neuvoď nás’ (And
TTITLE14=lead us not). Energico moderato – Con moto  JW 4-29   [Leos 
TTITLE14=Janácek]  
EXTD=
EXTT0=
EXTT1=
EXTT2=
EXTT3=
EXTT4=
EXTT5=
EXTT6=
EXTT7=
EXTT8=
EXTT9=
EXTT10=
EXTT11=
EXTT12=
EXTT13=
EXTT14=
PLAYORDER=
